<svg width="404" height="404" viewBox="0 0 404 404" fill="none" xmlns="http://www.w3.org/2000/svg">
<path d="M234.6 15.3009C262.3 -15.3991 313.1 5.7009 311 47.0009C309.7 73.0009 331.1 94.4009 357.1 93.1009C398.3 91.0009 419.4 141.801 388.8 169.501C369.5 186.901 369.5 217.201 388.8 234.701C419.5 262.401 398.4 313.201 357.1 311.101C331.1 309.801 309.7 331.201 311 357.201C313.1 398.401 262.3 419.501 234.6 388.901C217.2 369.601 186.9 369.601 169.4 388.901C141.7 419.601 90.9003 398.501 93.0003 357.201C94.3003 331.201 72.9003 309.801 46.9003 311.101C5.70031 313.201 -15.3997 262.401 15.2003 234.701C34.5003 217.301 34.5003 187.001 15.2003 169.501C-15.4997 141.801 5.60032 91.0009 46.9003 93.1009C72.9003 94.4009 94.3003 73.0009 93.0003 47.0009C90.9003 5.8009 141.7 -15.2991 169.4 15.3009C186.9 34.6009 217.1 34.6009 234.6 15.3009Z" fill="white"/>
</svg>
