<svg width="374" height="394" viewBox="0 0 374 394" fill="none" xmlns="http://www.w3.org/2000/svg">
<path d="M187 187.6C290.277 187.6 374 145.783 374 94.1998C374 42.6164 290.277 0.799805 187 0.799805C83.7228 0.799805 0 42.6164 0 94.1998C0 145.783 83.7228 187.6 187 187.6Z" fill="white"/>
<path d="M187 298C290.277 298 374 273.286 374 242.8C374 212.313 290.277 187.6 187 187.6C83.7228 187.6 0 212.313 0 242.8C0 273.286 83.7228 298 187 298Z" fill="white"/>
<path d="M187 361.4C290.277 361.4 374 347.207 374 329.7C374 312.193 290.277 298 187 298C83.7228 298 0 312.193 0 329.7C0 347.207 83.7228 361.4 187 361.4Z" fill="white"/>
<path d="M187 393.2C290.277 393.2 374 386.081 374 377.3C374 368.519 290.277 361.4 187 361.4C83.7228 361.4 0 368.519 0 377.3C0 386.081 83.7228 393.2 187 393.2Z" fill="white"/>
</svg>
