<svg width="378" height="376" viewBox="0 0 378 376" fill="none" xmlns="http://www.w3.org/2000/svg">
<path d="M189 30L212.7 0L228.1 34.9L258.5 11.8L264.8 49.4L299.9 34.6L296.7 72.6L334.4 66.9L321.8 103L359.8 106.9L338.6 138.7L374.4 151.9L346 177.4L377.4 199.1L343.5 216.7L368.5 245.6L331.3 254.2L348.4 288.4L310.2 287.5L318.2 324.8L281.5 314.5L279.9 352.7L246.9 333.5L235.9 370.1L208.7 343.3L189 376L169.3 343.3L142.1 370.1L131.1 333.5L98.1001 352.7L96.5001 314.5L59.8001 324.8L67.8001 287.5L29.6001 288.4L46.7001 254.2L9.5001 245.6L34.5001 216.7L0.600098 199.1L32.0001 177.4L3.6001 151.9L39.4001 138.7L18.2001 106.9L56.2001 103L43.6001 66.9L81.3001 72.6L78.1001 34.6L113.2 49.4L119.5 11.8L149.9 34.9L165.3 0L189 30Z" fill="white"/>
</svg>
