<svg width="390" height="390" viewBox="0 0 390 390" fill="none" xmlns="http://www.w3.org/2000/svg">
<path d="M57.2002 57.2002C22.0002 92.5002 0.200195 141.2 0.200195 195C0.200195 248.8 22.0002 297.5 57.2002 332.8C102 285 102 105 57.2002 57.2002Z" fill="white"/>
<path d="M332.8 57.2002C297.5 22.0002 248.8 0.200195 195 0.200195C141.2 0.200195 92.5002 22.0002 57.2002 57.2002C105 102 285 102 332.8 57.2002Z" fill="white"/>
<path d="M332.8 332.8C368 297.5 389.8 248.8 389.8 195C389.8 141.2 368 92.5002 332.8 57.2002C288 105 288 285 332.8 332.8Z" fill="white"/>
<path d="M57.2002 332.8C92.5002 368 141.2 389.8 195 389.8C248.8 389.8 297.5 368 332.8 332.8C285 288 105 288 57.2002 332.8Z" fill="white"/>
</svg>
